<?xml version="1.0" standalone="no"?><!-- Generator: Gravit.io --><svg xmlns="http://www.w3.org/2000/svg" xmlns:xlink="http://www.w3.org/1999/xlink" style="isolation:isolate" viewBox="0 0 560 315" width="560" height="315"><defs><clipPath id="_clipPath_ieJKUuyNVDURQNQvGIf8q0zVLKytZutR"><rect width="560" height="315"/></clipPath></defs><g clip-path="url(#_clipPath_ieJKUuyNVDURQNQvGIf8q0zVLKytZutR)"><path d=" M 339.143 86.857 L 431.143 86.857 L 431.143 265.14 C 431.143 288.243 412.386 307 389.283 307 L 339.143 307 L 339.143 86.857 Z " fill="rgb(91,189,232)" vector-effect="non-scaling-stroke" stroke-width="6.571" stroke="rgb(0,0,0)" stroke-linejoin="miter" stroke-linecap="square" stroke-miterlimit="3"/><path d=" M 339.143 211.714 L 339.143 307 L 170.717 307 C 147.614 307 128.857 288.243 128.857 265.14 L 128.857 211.714 L 339.143 211.714 Z " fill="rgb(255,221,123)" vector-effect="non-scaling-stroke" stroke-width="6.571" stroke="rgb(0,0,0)" stroke-linejoin="miter" stroke-linecap="square" stroke-miterlimit="3"/><path d=" M 339.143 211.714 L 339.143 86.857 L 128.857 86.857 L 128.857 211.714 L 339.143 211.714 Z " fill="rgb(91,189,232)" vector-effect="non-scaling-stroke" stroke-width="6.571" stroke="rgb(0,0,0)" stroke-linejoin="miter" stroke-linecap="square" stroke-miterlimit="3"/><path d=" M 431.143 86.857 L 431.143 49.86 C 431.143 26.757 412.386 8 389.283 8 L 170.717 8 C 147.614 8 128.857 26.757 128.857 49.86 L 128.857 86.857 L 431.143 86.857 Z " fill="rgb(255,88,85)" vector-effect="non-scaling-stroke" stroke-width="6.571" stroke="rgb(0,0,0)" stroke-linejoin="miter" stroke-linecap="square" stroke-miterlimit="3"/><path d=" M 128.857 57.286 L 431.143 57.286 L 449.214 100 L 110.786 100 L 128.857 57.286 Z " fill="rgb(255,221,123)" vector-effect="non-scaling-stroke" stroke-width="6.571" stroke="rgb(0,0,0)" stroke-linejoin="miter" stroke-linecap="square" stroke-miterlimit="3"/><g id="Group"><path d=" M 109.964 104.929 L 109.964 136.143 C 109.964 146.117 118.062 154.214 128.036 154.214 L 128.036 154.214 C 138.01 154.214 146.107 146.117 146.107 136.143 L 146.107 104.929 L 109.964 104.929 Z " fill="rgb(255,221,123)" vector-effect="non-scaling-stroke" stroke-width="6.571" stroke="rgb(0,0,0)" stroke-linejoin="miter" stroke-linecap="square" stroke-miterlimit="3"/><path d=" M 413.893 104.929 L 413.893 136.143 C 413.893 146.117 421.99 154.214 431.964 154.214 L 431.964 154.214 C 441.938 154.214 450.036 146.117 450.036 136.143 L 450.036 104.929 L 413.893 104.929 Z " fill="rgb(255,221,123)" vector-effect="non-scaling-stroke" stroke-width="6.571" stroke="rgb(0,0,0)" stroke-linejoin="miter" stroke-linecap="square" stroke-miterlimit="3"/><path d=" M 375.902 104.929 L 375.902 136.143 C 375.902 146.117 383.999 154.214 393.973 154.214 L 393.973 154.214 C 403.947 154.214 412.045 146.117 412.045 136.143 L 412.045 104.929 L 375.902 104.929 Z " fill="rgb(255,221,123)" vector-effect="non-scaling-stroke" stroke-width="6.571" stroke="rgb(0,0,0)" stroke-linejoin="miter" stroke-linecap="square" stroke-miterlimit="3"/><path d=" M 299.92 104.929 L 299.92 136.143 C 299.92 146.117 308.017 154.214 317.991 154.214 L 317.991 154.214 C 327.965 154.214 336.063 146.117 336.063 136.143 L 336.063 104.929 L 299.92 104.929 Z " fill="rgb(255,221,123)" vector-effect="non-scaling-stroke" stroke-width="6.571" stroke="rgb(0,0,0)" stroke-linejoin="miter" stroke-linecap="square" stroke-miterlimit="3"/><path d=" M 337.911 104.929 L 337.911 136.143 C 337.911 146.117 346.008 154.214 355.982 154.214 L 355.982 154.214 C 365.956 154.214 374.054 146.117 374.054 136.143 L 374.054 104.929 L 337.911 104.929 Z " fill="rgb(255,221,123)" vector-effect="non-scaling-stroke" stroke-width="6.571" stroke="rgb(0,0,0)" stroke-linejoin="miter" stroke-linecap="square" stroke-miterlimit="3"/><path d=" M 261.929 104.929 L 261.929 136.143 C 261.929 146.117 270.026 154.214 280 154.214 L 280 154.214 C 289.974 154.214 298.071 146.117 298.071 136.143 L 298.071 104.929 L 261.929 104.929 Z " fill="rgb(255,221,123)" vector-effect="non-scaling-stroke" stroke-width="6.571" stroke="rgb(0,0,0)" stroke-linejoin="miter" stroke-linecap="square" stroke-miterlimit="3"/><path d=" M 223.938 104.929 L 223.938 136.143 C 223.938 146.117 232.035 154.214 242.009 154.214 L 242.009 154.214 C 251.983 154.214 260.08 146.117 260.08 136.143 L 260.08 104.929 L 223.938 104.929 Z " fill="rgb(255,221,123)" vector-effect="non-scaling-stroke" stroke-width="6.571" stroke="rgb(0,0,0)" stroke-linejoin="miter" stroke-linecap="square" stroke-miterlimit="3"/><path d=" M 185.946 104.929 L 185.946 136.143 C 185.946 146.117 194.044 154.214 204.018 154.214 L 204.018 154.214 C 213.992 154.214 222.089 146.117 222.089 136.143 L 222.089 104.929 L 185.946 104.929 Z " fill="rgb(255,221,123)" vector-effect="non-scaling-stroke" stroke-width="6.571" stroke="rgb(0,0,0)" stroke-linejoin="miter" stroke-linecap="square" stroke-miterlimit="3"/><path d=" M 147.955 104.929 L 147.955 136.143 C 147.955 146.117 156.053 154.214 166.027 154.214 L 166.027 154.214 C 176.001 154.214 184.098 146.117 184.098 136.143 L 184.098 104.929 L 147.955 104.929 Z " fill="rgb(255,221,123)" vector-effect="non-scaling-stroke" stroke-width="6.571" stroke="rgb(0,0,0)" stroke-linejoin="miter" stroke-linecap="square" stroke-miterlimit="3"/></g><path d="M 362.143 211.714 L 375.286 211.714 C 377.099 211.714 378.571 213.187 378.571 215 L 378.571 215 C 378.571 216.813 377.099 218.286 375.286 218.286 L 362.143 218.286 C 360.329 218.286 358.857 216.813 358.857 215 L 358.857 215 C 358.857 213.187 360.329 211.714 362.143 211.714 Z" style="stroke:none;fill:#000000;stroke-miterlimit:10;"/></g></svg>